<?xml version="1.0" encoding="utf-8"?>
<!-- Generator: Adobe Illustrator 20.1.0, SVG Export Plug-In . SVG Version: 6.00 Build 0)  -->
<svg version="1.1" id="Layer_1" xmlns="http://www.w3.org/2000/svg" xmlns:xlink="http://www.w3.org/1999/xlink" x="0px" y="0px"
	 viewBox="0 0 68 71.2" style="enable-background:new 0 0 68 71.2;" xml:space="preserve">
<path d="M10.9,55.2c0,0.8,0.6,1.4,1.4,1.4h45.4c0.8,0,1.4-0.6,1.4-1.4c0-5.9-2.2-8.5-7.8-8.5H18.7C13.1,46.7,10.9,49.2,10.9,55.2z
	 M36.4,23.3c12.4,0.5,19.9,8.3,19.9,19.1c0,0.8-0.6,1.4-1.4,1.4H15.1c-0.8,0-1.4-0.6-1.4-1.4c0-10.8,7.4-18.6,19.9-19.1V19H30
	c-0.4,0-0.7-0.3-0.7-0.7v-1.4c0-0.4,0.3-0.7,0.7-0.7H40c0.4,0,0.7,0.3,0.7,0.7v1.4c0,0.4-0.3,0.7-0.7,0.7h-3.5V23.3L36.4,23.3z"/>
</svg>
