<?xml version="1.0" encoding="utf-8"?>
<!-- Generator: Adobe Illustrator 20.1.0, SVG Export Plug-In . SVG Version: 6.00 Build 0)  -->
<svg version="1.1" id="Layer_1" xmlns="http://www.w3.org/2000/svg" xmlns:xlink="http://www.w3.org/1999/xlink" x="0px" y="0px"
	 viewBox="0 0 100 125" style="enable-background:new 0 0 100 125;" xml:space="preserve">
<path d="M77.3,29.5C77.3,29.5,77.3,29.4,77.3,29.5c-13.8-13.8-36.2-13.8-50,0l0,0c-13.8,13.8-13.8,36.3,0,50.1l22.2,22.2
	c0.8,0.8,1.8,1.2,2.8,1.2s2-0.4,2.8-1.2l22.2-22.3C91.1,65.7,91.1,43.3,77.3,29.5z M52.3,65.5c-8,0-14.5-6.5-14.5-14.5
	s6.5-14.5,14.5-14.5S66.8,43,66.8,51S60.3,65.5,52.3,65.5z"/>
</svg>
