<?xml version="1.0" encoding="utf-8"?>
<!-- Generator: Adobe Illustrator 20.1.0, SVG Export Plug-In . SVG Version: 6.00 Build 0)  -->
<svg version="1.1" id="Layer_1" xmlns="http://www.w3.org/2000/svg" xmlns:xlink="http://www.w3.org/1999/xlink" x="0px" y="0px"
	 viewBox="0 0 100 125" style="enable-background:new 0 0 100 125;" xml:space="preserve">
<g>
	<path d="M90.6,58.3c-1.5-1.9-3.4-3.4-5.7-4.4c-2.6-1.1-4.8-1.2-4.9-1.2l-55.8,0.1l-6.8-10.6c-0.3-0.4-0.8-0.7-1.3-0.6l-3.4,0.5
		c-0.6,0.1-1.1,0.6-1.1,1.3l-0.2,12.4c-0.2,4.9,2.6,8.8,8.2,11.2c2.7,1.1,5,1.5,5.1,1.5c0.1,0,0.1,0,0.2,0l20,0.4L31.1,89.1
		c-0.3,0.4-0.3,1,0,1.4c0.1,0.2,0.4,0.4,0.6,0.5c0.2,0.1,0.4,0.1,0.7,0.1l7.2-0.7c0.3,0,0.5-0.1,0.7-0.3l25.6-22.2l20.4-1.9
		c0,0,0.1,0,0.1,0c2.7-0.5,4.4-1.5,5.1-3.1C92.3,60.7,90.8,58.5,90.6,58.3z"/>
	<path d="M31.4,42.4l5.4,8l3.2-0.1l3.1-0.1l4.7-0.1l2.5-0.1l5.6-0.2L42.3,38.8c-0.5-0.4-1.1-0.6-1.7-0.6l-7,0c-1,0-1.9,0.5-2.3,1.4
		C30.8,40.6,30.9,41.6,31.4,42.4z"/>
</g>
</svg>
