<?xml version="1.0" encoding="utf-8"?>
<!-- Generator: Adobe Illustrator 20.1.0, SVG Export Plug-In . SVG Version: 6.00 Build 0)  -->
<svg version="1.1" id="Layer_1" xmlns="http://www.w3.org/2000/svg" xmlns:xlink="http://www.w3.org/1999/xlink" x="0px" y="0px"
	 viewBox="0 0 512 640" style="enable-background:new 0 0 512 640;" xml:space="preserve">
<path d="M268.8,94C144.8,94,44,179.8,44,285.2c0,37.9,12.9,74.2,37.5,105.7l-14.7,81.6c-1.4,8.1,1.6,16.3,8,21.5
	c4.1,3.3,12.2,6.5,22.7,3.4l86.2-35.2c27.3,9.6,55.8,14.3,85.1,14.3c124,0,224.8-85.8,224.8-191.2S392.8,94,268.8,94z M299.1,163.2
	l-7.3,164.2H251l-7.7-164.2H299.1z M271.4,410.2c-16.1,0-29.2-13.5-29.2-29.2c0-16.1,13.1-29.6,29.2-29.6S301,365,301,381
	C301,396.7,287.5,410.2,271.4,410.2z"/>
</svg>
