<?xml version="1.0" encoding="utf-8"?>
<!-- Generator: Adobe Illustrator 20.1.0, SVG Export Plug-In . SVG Version: 6.00 Build 0)  -->
<svg version="1.1" id="Layer_1" xmlns="http://www.w3.org/2000/svg" xmlns:xlink="http://www.w3.org/1999/xlink" x="0px" y="0px"
	 viewBox="0 0 48 48" style="enable-background:new 0 0 48 48;" xml:space="preserve">
<g>
	<path d="M41.1,34V17.3c0.8,0,1.4-0.6,1.6-1.3c0.2-0.8-0.2-1.5-0.8-1.9L25.3,5.6c-0.8-0.4-1.8-0.4-2.6,0L6.2,14.1
		c-0.7,0.3-1.1,1.2-0.8,1.9c0.2,0.8,0.8,1.3,1.7,1.3V34c-1,0.1-1.8,1-1.8,2.1c0,1.2,0.9,2.1,2.1,2.1h33.7c1.2,0,2.1-0.9,2.1-2.1
		C42.9,35,42.1,34.1,41.1,34z M15.9,34H12V17.3h3.9L15.9,34L15.9,34z M28.7,34h-9.4V17.3h9.4C28.7,17.3,28.7,34,28.7,34z M36,34
		h-3.9V17.3H36V34z"/>
	<path d="M41.3,39.4H6.7C5.7,39.4,5,40.1,5,41c0,0.9,0.8,1.7,1.7,1.7h34.7c0.9,0,1.7-0.8,1.7-1.7C43,40.1,42.3,39.4,41.3,39.4z"/>
</g>
</svg>
