<?xml version="1.0" encoding="utf-8"?>
<!-- Generator: Adobe Illustrator 20.1.0, SVG Export Plug-In . SVG Version: 6.00 Build 0)  -->
<svg version="1.1" id="Layer_1" xmlns="http://www.w3.org/2000/svg" xmlns:xlink="http://www.w3.org/1999/xlink" x="0px" y="0px"
	 viewBox="0 0 84 105" style="enable-background:new 0 0 84 105;" xml:space="preserve">
<style type="text/css">
	.st0{stroke:#000000;stroke-miterlimit:10;}
</style>
<g transform="matrix(1,0,0,1,6.95625,-19.7534)">
	<path class="st0" d="M35.6,33L35.6,33c0.2,0,0.4,0.1,0.5,0.2c0.1,0,0.1,0.1,0.2,0.1l26.8,26.8c0,0,0,0,0.1,0.1s0.2,0.2,0.2,0.4
		c0,0.1,0,0.2,0,0.3c0,0.4-0.2,0.7-0.5,0.9c-0.1,0.1-0.3,0.1-0.4,0.1h-0.1H35.5h-0.1c-0.1,0-0.2,0-0.3-0.1c-0.3-0.1-0.5-0.4-0.6-0.7
		c0-0.1,0-0.2,0-0.3V34c0-0.1,0-0.2,0-0.3c0.1-0.3,0.3-0.5,0.6-0.7c0.1,0,0.2-0.1,0.3-0.1L35.6,33C35.6,33,35.6,33,35.6,33z
		 M36.6,59.8h23.3L36.6,36.6C36.6,44.3,36.6,52.1,36.6,59.8z"/>
</g>
<path class="st0" d="M16.3,15v70.9h52V39.6l2.1,2.1V87c0,0.1,0,0.2-0.1,0.3c-0.1,0.3-0.4,0.6-0.7,0.7c-0.1,0-0.2,0-0.3,0.1H15.2
	c-0.1,0-0.2,0-0.3-0.1c-0.3-0.1-0.6-0.4-0.7-0.7c0-0.1,0-0.2-0.1-0.3V14.3c0-0.1,0-0.2,0.1-0.3c0.1-0.3,0.4-0.6,0.7-0.7
	c0.1,0,0.2,0,0.3-0.1h27.4l1,1.8H16.3z"/>
<g>
	<path d="M23.8,69.3v-12h4.7c3.8,0,6.4,2.4,6.4,6s-2.6,6-6.4,6H23.8z M32.3,63.3c0-2.1-1.3-3.8-3.8-3.8h-2.2V67h2.2
		C30.9,67.1,32.3,65.4,32.3,63.3z"/>
	<path d="M36.1,63.3c0-3.6,2.6-6.2,6.3-6.2c3.6,0,6.3,2.6,6.3,6.2s-2.6,6.2-6.3,6.2C38.8,69.5,36.1,66.9,36.1,63.3z M46.1,63.3
		c0-2.3-1.4-3.9-3.7-3.9c-2.2,0-3.6,1.7-3.6,3.9s1.4,3.9,3.6,3.9C44.6,67.3,46.1,65.6,46.1,63.3z"/>
	<path d="M49.9,63.3c0-3.7,2.8-6.2,6.4-6.2c2.6,0,4.2,1.4,5,2.9l-2.2,1.1c-0.5-1-1.6-1.7-2.8-1.7c-2.2,0-3.8,1.7-3.8,3.9
		c0,2.3,1.6,3.9,3.8,3.9c1.2,0,2.3-0.8,2.8-1.7l2.2,1.1c-0.9,1.5-2.4,3-5,3C52.7,69.5,49.9,67,49.9,63.3z"/>
</g>
</svg>
