<?xml version="1.0" encoding="utf-8"?>
<!-- Generator: Adobe Illustrator 20.1.0, SVG Export Plug-In . SVG Version: 6.00 Build 0)  -->
<svg version="1.1" id="Layer_1" xmlns="http://www.w3.org/2000/svg" xmlns:xlink="http://www.w3.org/1999/xlink" x="0px" y="0px"
	 viewBox="0 0 100 125" style="enable-background:new 0 0 100 125;" xml:space="preserve">
<path d="M11.2,38.7v39.8c0,5.1,4.2,9.3,9.3,9.3h17.2l24.8,15.9c0.5,0.4,1,0.6,1.6,0.6c0.4,0,0.8-0.1,1.1-0.3
	c0.9-0.4,1.4-1.3,1.4-2.3V87.8h14.9c5.1,0,9.3-4.2,9.3-9.3V38.7c0-5-4-9.1-9-9.3l-61.3,0C15.4,29.3,11.2,33.5,11.2,38.7z M16,38.7
	c0-2.5,2-4.5,4.5-4.5h61c2.5,0,4.5,2,4.5,4.5v39.8c0,2.5-2,4.5-4.5,4.5H64.6c0,0-1.2,0-3.1,0V88v2v8.2L39.9,82.9c-0.5,0-1.3,0-1.3,0
	H20.5c-2.5,0-4.5-2-4.5-4.5L16,38.7z"/>
<rect x="29.5" y="53.9" width="8.6" height="8.6"/>
<rect x="47.3" y="53.9" width="8.6" height="8.6"/>
<rect x="64.4" y="53.9" width="8.6" height="8.6"/>
</svg>
