<?xml version="1.0" encoding="utf-8"?>
<!-- Generator: Adobe Illustrator 20.1.0, SVG Export Plug-In . SVG Version: 6.00 Build 0)  -->
<svg version="1.1" id="Layer_1" xmlns="http://www.w3.org/2000/svg" xmlns:xlink="http://www.w3.org/1999/xlink" x="0px" y="0px"
	 viewBox="0 0 48 48" style="enable-background:new 0 0 48 48;" xml:space="preserve">
<g id="Layer_1_1_">
	<g>
		<path d="M43.8,37.6L32.2,26c-0.4,0.3-0.8,0.5-1.3,0.7c-0.6,0.2-1.2,0.3-1.8,0.3c-0.7,0-1.4-0.1-2.1-0.4l-3.7,3.9
			c0.5,0.4,1.1,0.6,1.7,0.6c0.8,0,1.7-0.3,2.3-0.9l0.1-0.1L39,42.4c0.4,0.5,1.1,0.7,1.7,0.8s1.3-0.2,1.7-0.7l1.4-1.4
			c0.4-0.4,0.7-1.1,0.7-1.7S44.3,38.1,43.8,37.6z"/>
		<path d="M16.3,22.4l3.5-3.3c-0.2-0.6-0.3-1.2-0.3-1.9c0-1.1,0.3-2.2,0.9-3.1l-7.3-7.5c-1.1-1.1-2.9-1.1-4.1,0
			c-1.9,1.9-2,5-0.3,7.1L16.3,22.4z"/>
		<path d="M27.1,23.5c0.6,0.6,1.3,0.8,2,0.8c0.7,0,1.5-0.3,2-0.8l9.1-9.1c0.3-0.3,0.3-0.9,0-1.2L40.2,13c-0.2-0.2-0.4-0.3-0.6-0.3
			c-0.2,0-0.5,0.1-0.6,0.3l-6,6c-0.3,0.3-0.6,0.4-1,0.4c-0.4,0-0.7-0.1-1-0.4l-0.1-0.1c-0.5-0.5-0.5-1.4,0-1.9l6-6
			c0.3-0.3,0.3-0.9,0-1.2l-0.1-0.1c-0.2-0.2-0.4-0.3-0.6-0.3c-0.2,0-0.5,0.1-0.6,0.3l-6,6c-0.3,0.3-0.6,0.4-1,0.4
			c-0.4,0-0.7-0.1-1-0.4l-0.1-0.1c-0.3-0.3-0.4-0.6-0.4-1c0-0.4,0.1-0.7,0.4-1l6-6c0.2-0.2,0.3-0.4,0.3-0.6c0-0.2-0.1-0.5-0.3-0.6
			L33.3,6c-0.2-0.2-0.4-0.3-0.6-0.3c-0.2,0-0.4,0.1-0.6,0.3l-9.1,9.1c-0.5,0.5-0.8,1.3-0.8,2s0.3,1.5,0.8,2l0.3,0.3L4.2,37.3
			c-0.5,0.4-0.7,1.1-0.8,1.7c0,0.6,0.2,1.3,0.7,1.7l1.4,1.5c0.5,0.4,1.1,0.9,1.7,0.9c0,0,0,0,0,0c0.6,0,1.3-0.5,1.7-0.9l17.8-19.1
			L27.1,23.5z"/>
	</g>
</g>
<g>
	<path d="M23.1,19.5l-1.4,1.3l3.6,3.8l1.4-1.5l0.4,0.4c0.6,0.6,1.3,0.8,2,0.8c0.7,0,1.5-0.3,2-0.8l9.1-9.1c0.3-0.3,0.3-0.9,0-1.2
		L40.2,13c-0.2-0.2-0.4-0.3-0.6-0.3c-0.2,0-0.5,0.1-0.6,0.3l-6,6c-0.3,0.3-0.6,0.4-1,0.4c-0.4,0-0.7-0.1-1-0.4l-0.1-0.1
		c-0.5-0.5-0.5-1.4,0-1.9l6-6c0.3-0.3,0.3-0.9,0-1.2l-0.1-0.1c-0.2-0.2-0.4-0.3-0.6-0.3c-0.2,0-0.5,0.1-0.6,0.3l-6,6
		c-0.3,0.3-0.6,0.4-1,0.4c-0.4,0-0.7-0.1-1-0.4l-0.1-0.1c-0.3-0.3-0.4-0.6-0.4-1c0-0.4,0.1-0.7,0.4-1l6-6c0.2-0.2,0.3-0.4,0.3-0.6
		c0-0.2-0.1-0.5-0.3-0.6L33.2,6c-0.2-0.2-0.4-0.3-0.6-0.3c-0.2,0-0.4,0.1-0.6,0.3l-9.1,9.1c-0.5,0.5-0.8,1.3-0.8,2
		c0,0.8,0.3,1.5,0.8,2L23.1,19.5z"/>
</g>
<path d="M19.6,18.7c-0.1-0.5-0.2-1-0.2-1.5c0-1.1,0.3-2.2,0.9-3.1l-7.3-7.5C12,5.5,10.2,5.5,9,6.6C8.9,6.8,8.7,7,8.6,7.2L19.6,18.7z
	"/>
<path d="M42.4,42.4C42.4,42.4,42.4,42.4,42.4,42.4l1.4-1.4c0.4-0.4,0.7-1.1,0.7-1.7s-0.3-1.2-0.7-1.7L32.2,26
	c-0.4,0.3-0.8,0.5-1.3,0.7c-0.6,0.2-1.2,0.3-1.8,0.3c-0.7,0-1.4-0.1-2.1-0.4l0,0L42.4,42.4z"/>
</svg>
