<?xml version="1.0" encoding="utf-8"?>
<!-- Generator: Adobe Illustrator 20.1.0, SVG Export Plug-In . SVG Version: 6.00 Build 0)  -->
<svg version="1.1" id="Layer_1" xmlns="http://www.w3.org/2000/svg" xmlns:xlink="http://www.w3.org/1999/xlink" x="0px" y="0px"
	 viewBox="0 0 333.3 333.3" style="enable-background:new 0 0 333.3 333.3;" xml:space="preserve">
<path d="M228.5,182.3c-22.5-57.8-35.3-48.2-80.3-48.2s-56.7-8.6-79.7,48.7c-23.1,57.3-23.1,57.3-16.6,63.7s6.4,6.4,32.1-32.1
	s16.1-32.1,16.1,16.1s-16.1,48.2,48.2,48.2s48.2,0,48.2-48.2s-9.6-54.6,16.1-16.1s25.7,38.5,32.1,32.1
	C251,240.1,251,240.1,228.5,182.3L228.5,182.3z M116.1,85.9c0,19.3,12.8,32.1,32.1,32.1s32.1-12.8,32.1-32.1s-12.8-32.1-32.1-32.1
	S116.1,66.6,116.1,85.9z"/>
<path d="M242.7,80.4l-0.1-5.5l-7.9,0.1l1.4,92.3l0.6,41.1l0.8,33.1l7.9-0.1l-0.9-41.5l-0.6-37l-0.4-25.4c9.4-3.5,23-9.4,47.5-22.4"
	/>
</svg>
