<?xml version="1.0" encoding="utf-8"?>
<!-- Generator: Adobe Illustrator 20.1.0, SVG Export Plug-In . SVG Version: 6.00 Build 0)  -->
<svg version="1.1" id="Layer_1" xmlns="http://www.w3.org/2000/svg" xmlns:xlink="http://www.w3.org/1999/xlink" x="0px" y="0px"
	 viewBox="0 0 48 48" style="enable-background:new 0 0 48 48;" xml:space="preserve">
<style type="text/css">
	.st0{fill:#020202;}
	.st1{fill:#FFFFFF;}
</style>
<g>
	<path d="M38.2,15.8H20.7c-0.7,0-1.3,0.6-1.3,1.3v13.7L15,35.7v6.6c0,0.7,0.6,1.3,1.3,1.3h11.4v-7.2c0-0.2,0.2-0.4,0.4-0.4h2.8
		c0.2,0,0.4,0.2,0.4,0.4v7.2h6.9c0.7,0,1.3-0.6,1.3-1.3V17.1C39.5,16.3,38.9,15.8,38.2,15.8z M26.2,39.4c0,0.2-0.2,0.4-0.4,0.4h-2.8
		c-0.2,0-0.4-0.2-0.4-0.4v-2.8c0-0.2,0.2-0.4,0.4-0.4h2.8c0.2,0,0.4,0.2,0.4,0.4V39.4z M26.2,34.3c0,0.2-0.2,0.4-0.4,0.4h-2.8
		c-0.2,0-0.4-0.2-0.4-0.4v-2.8c0-0.2,0.2-0.4,0.4-0.4h2.8c0.2,0,0.4,0.2,0.4,0.4V34.3z M26.2,29.1c0,0.2-0.2,0.4-0.4,0.4h-2.8
		c-0.2,0-0.4-0.2-0.4-0.4v-2.8c0-0.2,0.2-0.4,0.4-0.4h2.8c0.2,0,0.4,0.2,0.4,0.4V29.1z M26.2,24c0,0.2-0.2,0.4-0.4,0.4h-2.8
		c-0.2,0-0.4-0.2-0.4-0.4v-2.8c0-0.2,0.2-0.4,0.4-0.4h2.8c0.2,0,0.4,0.2,0.4,0.4V24z M31.3,34.3c0,0.2-0.2,0.4-0.4,0.4h-2.8
		c-0.2,0-0.4-0.2-0.4-0.4v-2.8c0-0.2,0.2-0.4,0.4-0.4h2.8c0.2,0,0.4,0.2,0.4,0.4V34.3z M31.3,29.1c0,0.2-0.2,0.4-0.4,0.4h-2.8
		c-0.2,0-0.4-0.2-0.4-0.4v-2.8c0-0.2,0.2-0.4,0.4-0.4h2.8c0.2,0,0.4,0.2,0.4,0.4V29.1z M31.3,24c0,0.2-0.2,0.4-0.4,0.4h-2.8
		c-0.2,0-0.4-0.2-0.4-0.4v-2.8c0-0.2,0.2-0.4,0.4-0.4h2.8c0.2,0,0.4,0.2,0.4,0.4V24z M36.4,39.4c0,0.2-0.2,0.4-0.4,0.4h-2.8
		c-0.2,0-0.4-0.2-0.4-0.4v-2.8c0-0.2,0.2-0.4,0.4-0.4H36c0.2,0,0.4,0.2,0.4,0.4V39.4z M36.4,34.3c0,0.2-0.2,0.4-0.4,0.4h-2.8
		c-0.2,0-0.4-0.2-0.4-0.4v-2.8c0-0.2,0.2-0.4,0.4-0.4H36c0.2,0,0.4,0.2,0.4,0.4V34.3z M36.4,29.1c0,0.2-0.2,0.4-0.4,0.4h-2.8
		c-0.2,0-0.4-0.2-0.4-0.4v-2.8c0-0.2,0.2-0.4,0.4-0.4H36c0.2,0,0.4,0.2,0.4,0.4V29.1z M36.4,24c0,0.2-0.2,0.4-0.4,0.4h-2.8
		c-0.2,0-0.4-0.2-0.4-0.4v-2.8c0-0.2,0.2-0.4,0.4-0.4H36c0.2,0,0.4,0.2,0.4,0.4V24z"/>
</g>
<path class="st0" d="M16.1,24h-4l4.4-4.4c0.1,0,0.1-0.1,0.1-0.2c0.1-0.1,0.1-0.3,0-0.4c-0.1-0.1-0.2-0.2-0.3-0.3c-0.1,0-0.1,0-0.2,0
	h-5.3c-0.3,0-0.5,0.2-0.5,0.5c0,0.3,0.2,0.5,0.5,0.5h4l-4.4,4.4c0,0-0.1,0.1-0.1,0.2c-0.1,0.1-0.1,0.3,0,0.4
	c0.1,0.1,0.2,0.2,0.3,0.3c0.1,0,0.1,0,0.2,0h5.3c0.3,0,0.5-0.2,0.5-0.5C16.7,24.2,16.4,24,16.1,24z"/>
<path class="st0" d="M12.4,15.7h-3l3.4-3.4c0-0.1,0.1-0.1,0.1-0.2c0.1-0.1,0.1-0.3,0-0.4c-0.1-0.1-0.2-0.2-0.3-0.3
	c-0.1,0-0.1,0-0.2,0H8.1c-0.3,0-0.5,0.2-0.5,0.5c0,0.3,0.2,0.5,0.5,0.5h3l-3.4,3.4c0,0.1-0.1,0.1-0.1,0.2c-0.1,0.1-0.1,0.3,0,0.4
	c0.1,0.1,0.2,0.2,0.3,0.3c0.1,0,0.1,0,0.2,0h4.3c0.3,0,0.5-0.2,0.5-0.5C13,15.9,12.7,15.7,12.4,15.7z"/>
<path class="st0" d="M18.9,10.1h-2.7L19.3,7c0,0,0.1-0.1,0.1-0.2c0.1-0.1,0.1-0.3,0-0.4c0-0.1-0.1-0.2-0.3-0.3c-0.1,0-0.1,0-0.2,0
	H15c-0.3,0-0.5,0.2-0.5,0.5c0,0.3,0.2,0.5,0.5,0.5h2.7l-3.1,3.1c0,0-0.1,0.1-0.1,0.2c0,0.1,0,0.3,0,0.4c0,0.1,0.1,0.2,0.3,0.3
	c0.1,0,0.1,0,0.2,0h3.9c0.3,0,0.5-0.2,0.5-0.5C19.4,10.3,19.2,10.1,18.9,10.1z"/>
<rect x="22" y="19.7" width="15" height="15.4"/>
<rect x="32.8" y="35.7" width="4.9" height="6.1"/>
<rect x="21.9" y="35" width="4.9" height="6.1"/>
<path class="st1" d="M26.6,24.5h-2.7c-0.5,0-1-0.5-1-1v-3.1c0-0.6,0.5-1,1-1h2.7c0.6,0,1,0.4,1,1v3.1C27.6,24,27.2,24.5,26.6,24.5z"
	/>
<path class="st1" d="M26.6,31.7h-2.7c-0.5,0-1-0.4-1-1v-3.1c0-0.5,0.5-1,1-1h2.7c0.6,0,1,0.5,1,1v3.1C27.6,31.3,27.1,31.7,26.6,31.7
	z"/>
<path class="st1" d="M35,24.5h-2.7c-0.6,0-1-0.5-1-1v-3.1c0-0.6,0.5-1,1-1H35c0.5,0,1,0.4,1,1v3.1C36,24,35.6,24.5,35,24.5z"/>
<path class="st1" d="M34.9,31.7h-2.7c-0.6,0-1-0.4-1-1v-3.1c0-0.5,0.5-1,1-1h2.7c0.5,0,1,0.5,1,1v3.1C35.9,31.3,35.5,31.7,34.9,31.7
	z"/>
</svg>
