<?xml version="1.0" encoding="utf-8"?>
<!-- Generator: Adobe Illustrator 20.1.0, SVG Export Plug-In . SVG Version: 6.00 Build 0)  -->
<svg version="1.1" id="Layer_1" xmlns="http://www.w3.org/2000/svg" xmlns:xlink="http://www.w3.org/1999/xlink" x="0px" y="0px"
	 viewBox="0 0 48 48" style="enable-background:new 0 0 48 48;" xml:space="preserve">
<g id="Layer_1_1_">
	<path d="M41.8,41.6l-4.5-8.2c1.3-0.2,2.2-1.3,2.2-2.6V18.6c0-3.2-2.6-5.9-5.9-5.9H26c-3.2,0-5.9,2.6-5.9,5.9v12.1
		c0,1.3,0.9,2.4,2.2,2.6l-4.4,8.2c-0.3,0.7-0.1,1.5,0.5,1.8c0.2,0.1,0.4,0.1,0.6,0.1c0.5,0,0.9-0.3,1.1-0.7l0.4-0.7h18.6l0.4,0.7
		c0.3,0.5,0.7,0.7,1.1,0.7c0.2,0,0.4-0.1,0.6-0.1C41.9,43.1,42.1,42.3,41.8,41.6z M35.5,35.5H24.2l1.1-2.1h9L35.5,35.5z M35.3,31
		c-1.1,0-2-0.9-2-2s0.9-2,2-2s2,0.9,2,2C37.2,30.1,36.4,31,35.3,31z M22.4,19.4c0-2.1,1.7-3.8,3.7-3.8h7.3c2,0,3.8,1.7,3.8,3.8v3.2
		c0,0.7-0.6,1.3-1.3,1.3H23.8c-0.7,0-1.3-0.6-1.3-1.3L22.4,19.4L22.4,19.4z M24.4,27c1.1,0,2,0.9,2,2s-0.9,2-2,2s-2-0.9-2-2
		S23.3,27,24.4,27z M21.6,40.2l1.5-2.6h13.5l1.5,2.6H21.6z"/>
</g>
<path d="M13.9,23.5H9.6l4.7-4.7c0.1-0.1,0.1-0.1,0.1-0.2c0.1-0.1,0.1-0.3,0-0.4c-0.1-0.1-0.2-0.3-0.3-0.3c-0.1,0-0.1,0-0.2,0H8.2
	c-0.3,0-0.6,0.3-0.6,0.6c0,0.3,0.3,0.6,0.6,0.6h4.3l-4.7,4.7c-0.1,0.1-0.1,0.1-0.1,0.2c-0.1,0.1-0.1,0.3,0,0.4
	c0.1,0.1,0.2,0.3,0.3,0.3c0.1,0,0.1,0,0.2,0h5.7c0.3,0,0.6-0.3,0.6-0.6C14.5,23.8,14.2,23.5,13.9,23.5z"/>
<path d="M9.9,14.6H6.7l3.6-3.6c0.1-0.1,0.1-0.1,0.1-0.2c0.1-0.1,0.1-0.3,0-0.4c-0.1-0.1-0.2-0.3-0.3-0.3c-0.1,0-0.1,0-0.2,0H5.3
	c-0.3,0-0.6,0.3-0.6,0.6c0,0.3,0.3,0.6,0.6,0.6h3.2l-3.6,3.6c-0.1,0.1-0.1,0.1-0.1,0.2c-0.1,0.1-0.1,0.3,0,0.4
	c0.1,0.1,0.2,0.3,0.3,0.3c0.1,0,0.1,0,0.2,0h4.6c0.3,0,0.6-0.3,0.6-0.6C10.5,14.9,10.2,14.6,9.9,14.6z"/>
<path d="M16.9,8.7h-2.9l3.3-3.3c0,0,0.1-0.1,0.1-0.2c0.1-0.1,0.1-0.3,0-0.4c-0.1-0.1-0.2-0.2-0.3-0.3c-0.1,0-0.1,0-0.2,0h-4.2
	c-0.3,0-0.5,0.2-0.5,0.5c0,0.3,0.2,0.5,0.5,0.5h2.9l-3.3,3.3c0,0-0.1,0.1-0.1,0.2c-0.1,0.1-0.1,0.3,0,0.4c0.1,0.1,0.2,0.2,0.3,0.3
	c0.1,0,0.1,0,0.2,0h4.2c0.3,0,0.5-0.2,0.5-0.5C17.4,8.9,17.2,8.7,16.9,8.7z"/>
</svg>
