<?xml version="1.0" encoding="utf-8"?>
<!-- Generator: Adobe Illustrator 20.1.0, SVG Export Plug-In . SVG Version: 6.00 Build 0)  -->
<svg version="1.1" id="Layer_1" xmlns="http://www.w3.org/2000/svg" xmlns:xlink="http://www.w3.org/1999/xlink" x="0px" y="0px"
	 viewBox="0 0 100 125" style="enable-background:new 0 0 100 125;" xml:space="preserve">
<style type="text/css">
	.st0{stroke:#000000;stroke-miterlimit:10;}
</style>
<path class="st0" d="M89.9,47.3c-0.2,6.3-2.8,12.2-7.4,16.8l-28,28.2c-0.7,0.7-1.8,0.7-2.5,0c-0.7-0.7-0.7-1.8,0-2.5l28-28.1
	c4-4,6.2-9.1,6.4-14.5c0.2-5.3-1.7-10.3-5.3-14c-7.5-7.5-20.3-7.1-28.4,1.1l-31.9,32C12,74.9,11,86,18.2,93.2
	c4.3,4.4,14.4,5.6,19.3,0.5l35.7-35.9c5-5,5.2-12.7,0.7-17.3c-4.5-4.5-12.2-4.3-17.2,0.7L30.2,67.8c-0.7,0.7-1.8,0.7-2.5,0
	c-0.7-0.7-0.7-1.8,0-2.5l26.5-26.6c6.3-6.3,16.1-6.6,22.1-0.7c5.9,5.9,5.6,15.9-0.7,22.2L40,96.3c-2.7,2.7-7.1,4.3-11.7,4.3
	c-4.4,0-9-1.5-12.5-4.9c-8.4-8.5-7.4-21.9,2.6-31.9l31.9-32c9.5-9.5,24.4-10,33.2-1.1C87.8,35.1,90.1,41,89.9,47.3z"/>
</svg>
