<?xml version="1.0" encoding="utf-8"?>
<!-- Generator: Adobe Illustrator 20.1.0, SVG Export Plug-In . SVG Version: 6.00 Build 0)  -->
<svg version="1.1"
	 id="Layer_1" xmlns:cc="http://creativecommons.org/ns#" xmlns:dc="http://purl.org/dc/elements/1.1/" xmlns:rdf="http://www.w3.org/1999/02/22-rdf-syntax-ns#" xmlns:svg="http://www.w3.org/2000/svg"
	 xmlns="http://www.w3.org/2000/svg" xmlns:xlink="http://www.w3.org/1999/xlink" x="0px" y="0px" viewBox="0 0 100 125"
	 style="enable-background:new 0 0 100 125;" xml:space="preserve">
<g>
	<path d="M51.1,23.8c-2.3,0-4.2,10-6,11.4c-1.9,1.4-12,0-12.7,2.2s8.2,7,8.9,9.2c0.7,2.2-3.7,11.4-1.8,12.8
		c1.9,1.4,9.3-5.6,11.6-5.6c2.3,0,9.7,7,11.6,5.6c1.9-1.4-2.5-10.5-1.8-12.8c0.7-2.2,9.7-7,8.9-9.2c-0.7-2.2-10.8-0.9-12.7-2.2
		C55.3,33.8,53.5,23.8,51.1,23.8z M13.3,41.5c-0.1,0-0.2,0-0.3,0.1c-1.6,0.9,0.9,8.6,0.1,10.2c-0.8,1.7-8.4,4.6-8.1,6.4
		c0.3,1.8,8.4,1.8,9.8,3.1c1.3,1.3,1.7,9.4,3.6,9.6c1.8,0.2,4.4-7.5,6-8.3c1.6-0.9,9.5,1.3,10.2-0.4c0.8-1.7-5.8-6.5-6.1-8.3
		c-0.3-1.8,4.1-8.6,2.8-9.9c-1.3-1.3-7.9,3.5-9.8,3.2C19.8,47.1,15.2,41.5,13.3,41.5z M87.6,51.2c-1.9-0.1-6.8,5.1-8.5,5.3
		c-1.8,0.1-8.1-5-9.5-3.8s2.7,8.2,2.2,10c-0.4,1.8-7.3,6.2-6.6,7.9c0.7,1.7,8.6,0,10.2,1s3.7,8.8,5.5,8.7c1.8-0.1,2.7-8.2,4.1-9.4
		c1.4-1.2,9.5-0.7,9.9-2.5s-7-5.1-7.7-6.8s2.2-9.3,0.7-10.2C87.9,51.2,87.7,51.2,87.6,51.2z M51.3,56.6c-0.1,0-0.3,0-0.4,0
		c-2.1,0.8-3.9,2.4-5.8,3.6c0.2,9,2,10.9-3,29.9c9.6-14.5,11.7-18.3,14.3-30.5c-1-0.7-1.9-1.4-2.9-2C52.8,57.3,52.1,56.6,51.3,56.6z
		 M26.3,64.9c-0.2,0-0.4,0-0.6,0c-1.3,1.4-2,3.3-2.9,5c3.5,6.3,8.1,7.3,11.7,22.1c1.2-13.6-1.3-17.3-4.1-26.7
		C29,65.1,27.6,64.9,26.3,64.9z M72.1,73.8c-1.3,0-2.6,0.2-3.8,0.2c-3.7,6.2-8.1,10.2-19.2,20.7c12.4-5.7,20.2-9.4,27-16.5
		c-0.7-1.5-1.2-3-2.1-4.3C73.4,73.8,72.8,73.8,72.1,73.8z"/>
	<g>
		<path d="M51.2,53.8c2.3,0,9.7,7,11.6,5.6S60.3,48.9,61,46.6c0.7-2.2,9.7-7,8.9-9.2c-0.7-2.2-10.8-0.9-12.7-2.2
			c-1.9-1.4-3.7-11.4-6-11.4V53.8z"/>
		<path d="M53.5,57.6c-0.7-0.3-1.4-1.1-2.2-1.1h-0.1v19c2.5-4.9,3.8-9.1,5.2-15.9C55.4,59,54.5,58.3,53.5,57.6z"/>
		<path d="M87.3,61.6c-0.7-1.7,2.2-9.3,0.7-10.2c-0.1-0.1-0.2-0.1-0.3-0.1c-1.9-0.1-6.8,5.1-8.5,5.3c-1.8,0.1-8.1-5-9.5-3.8
			s2.7,8.2,2.2,10c-0.4,1.8-7.3,6.2-6.6,7.9c0.7,1.7,8.6,0,10.2,1s3.7,8.8,5.5,8.7c1.8-0.1,2.7-8.2,4.1-9.4c1.4-1.2,9.5-0.7,9.9-2.5
			C95.4,66.6,88,63.3,87.3,61.6z"/>
		<path d="M72.2,73.8c-1.3,0-2.6,0.2-3.8,0.2c-3.4,5.8-7.6,9.7-17.2,18.8v1c11.2-5.2,18.6-8.8,25-15.5c-0.7-1.5-1.2-3-2.1-4.3
			C73.4,73.8,72.8,73.8,72.2,73.8z"/>
	</g>
</g>
</svg>
