<?xml version="1.0" encoding="utf-8"?>
<!-- Generator: Adobe Illustrator 20.1.0, SVG Export Plug-In . SVG Version: 6.00 Build 0)  -->
<svg version="1.1" xmlns="http://www.w3.org/2000/svg" xmlns:xlink="http://www.w3.org/1999/xlink" x="0px" y="0px"
	 viewBox="0 0 100 125" style="enable-background:new 0 0 100 125;" xml:space="preserve">
<g id="Layer_1">
	<g>
		<path d="M55.2,48.3c-0.9-5.1-2.7-11.1-4.8-16.2l0,0c-4.4-3.8-13.7-5.4-23.8-3.7C16.4,30.2,8.3,34.8,5.4,40l-0.1,0
			c-0.3,5.5,0.1,11.8,1,16.9c3.6,20.3,18.3,40,31.8,37.7C51.6,92.2,58.7,68.6,55.2,48.3z M14.5,57.6c-0.6,0.2-1.3,0.2-1.9-0.1
			c-1.2-0.6-1.8-2-1.2-3.3c2.3-4.9,8-7,12.9-4.7c1.2,0.6,1.8,2,1.2,3.3c-0.6,1.2-2,1.8-3.3,1.2c-2.4-1.1-5.2-0.1-6.4,2.3
			C15.6,57,15,57.4,14.5,57.6z M49.6,65.9c-6.1,19.3-19.8,21.7-32.1,5.7l0,0c0,0,0,0,0,0c-0.7-0.5-0.9-1.5-0.4-2.2
			c0.5-0.7,1.5-0.9,2.2-0.4c1,0.7,2,1.3,3.1,1.8c3.7,1.7,7.7,2.3,11.8,1.5c4.1-0.7,7.7-2.6,10.6-5.5c0.8-0.8,1.6-1.7,2.3-2.7
			c0.5-0.7,1.5-0.9,2.2-0.4C50,64.2,50.1,65.2,49.6,65.9C49.6,65.9,49.6,65.9,49.6,65.9L49.6,65.9z M49.5,51c-1,1-2.5,1-3.5,0
			c-1.9-1.9-4.9-1.9-6.8,0c-0.5,0.5-1.1,0.7-1.7,0.7c-0.6,0-1.3-0.2-1.7-0.7c-1-1-1-2.5,0-3.5c3.8-3.8,9.9-3.8,13.7,0
			C50.4,48.5,50.4,50.1,49.5,51z"/>
	</g>
</g>
<g id="Layer_3">
</g>
<g id="Layer_2">
	<g>
		<path d="M94.6,40L94.6,40c-2.9-5.1-11-9.8-21.1-11.6c-7.6-1.3-14.7-0.8-19.7,1.2l0.3,0.8c1.9,4.5,3.6,9.8,4.6,14.7
			c2.2,0.9,4.1,2.6,5.2,4.9c0.6,1.2,0,2.7-1.2,3.3c-1,0.5-2.1,0.2-2.8-0.6c0.4,4.6,0.4,9.3-0.1,13.9c2.2,0.4,4.3,1.2,6.6,1.6
			c5.7,1,12-0.8,15,8.8l0,0c0,0,0,0,0,0c0.5,0.7,0.3,1.7-0.4,2.2c-0.7,0.5-1.7,0.3-2.2-0.4c-0.7-1-1.5-1.9-2.3-2.7
			c-2.9-2.9-8-1.6-12.1-2.3c-2.3-0.4-3.9-0.6-5.4-1.5c-0.5,2.8-1.2,4.6-2.1,7.2c-1.2,3.5-2.7,6.6-4.4,9.2c2.6,3.1,5.7,5.2,9.2,5.8
			C75.3,96.9,90,77.2,93.6,56.9C94.5,51.8,94.9,45.5,94.6,40z M88.7,55.4c-1,1-2.5,1-3.5,0c-1.9-1.9-4.9-1.9-6.8,0
			c-0.5,0.5-1.1,0.7-1.7,0.7c-0.6,0-1.3-0.2-1.7-0.7c-1-1-1-2.5,0-3.5c3.8-3.8,9.9-3.8,13.7,0C89.7,52.8,89.7,54.4,88.7,55.4z"/>
	</g>
</g>
</svg>
