<?xml version="1.0" encoding="utf-8"?>
<!-- Generator: Adobe Illustrator 20.1.0, SVG Export Plug-In . SVG Version: 6.00 Build 0)  -->
<svg version="1.1" id="Layer_1" xmlns="http://www.w3.org/2000/svg" xmlns:xlink="http://www.w3.org/1999/xlink" x="0px" y="0px"
	 viewBox="0 0 48 48" style="enable-background:new 0 0 48 48;" xml:space="preserve">
<g>
	<path d="M36.7,13c0.7-0.2,1.2-0.8,1.2-1.6c0-0.9-0.7-1.6-1.6-1.6h-7c0.7,1.4,1.3,3,2,4.7L36.7,13z"/>
	<path d="M12.4,13l5.4,1.5c0.7-1.7,1.4-3.4,2-4.7h-7c-0.9,0-1.6,0.7-1.6,1.6C11.2,12.2,11.7,12.8,12.4,13z"/>
	<path d="M44.4,22.3c-0.2-0.2-0.4-0.3-0.7-0.3L32,22.1c-1.6-5.4-4.1-11.8-5.7-14c-0.4-0.6-1.1-0.9-1.8-0.9c-0.7,0-1.4,0.3-1.8,0.9
		c-1.7,2.3-4.1,8.7-5.7,14L5.4,22c-0.3,0-0.5,0.1-0.7,0.3c-0.2,0.2-0.3,0.4-0.3,0.7v0.6c0,1,0.5,1.9,1.4,2.3l9.7,5
		c0.6,4.7,4.4,9.9,9,9.9c4.6,0,8.4-5.2,9-10l9.8-5c0.8-0.4,1.4-1.3,1.4-2.3V23C44.7,22.7,44.6,22.5,44.4,22.3z M29.2,31.3
		c-0.2,0.3-0.6,0.5-1,0.5h-7.3c-0.4,0-0.8-0.2-1-0.5c-0.2-0.3-0.3-0.7-0.1-1.1l1-2.4c0.2-0.4,0.6-0.7,1.1-0.7h5.2
		c0.5,0,0.9,0.3,1.1,0.7l1,2.4C29.4,30.6,29.4,31,29.2,31.3z"/>
</g>
</svg>
