<?xml version="1.0" encoding="utf-8"?>
<!-- Generator: Adobe Illustrator 20.1.0, SVG Export Plug-In . SVG Version: 6.00 Build 0)  -->
<svg version="1.1" id="Layer_1" xmlns="http://www.w3.org/2000/svg" xmlns:xlink="http://www.w3.org/1999/xlink" x="0px" y="0px"
	 viewBox="0 0 24 30" style="enable-background:new 0 0 24 30;" xml:space="preserve">
<g>
	<path d="M20.9,10.8h-3.7V6.2c0-0.5-0.4-0.9-0.9-0.9H7.7c-0.5,0-0.9,0.4-0.9,0.9v4.6H3.1c-0.5,0-0.9,0.4-0.9,0.9v8.6
		c0,0.5,0.4,0.9,0.9,0.9h3.7v2.5c0,0.5,0.4,0.9,0.9,0.9h8.6c0.5,0,0.9-0.4,0.9-0.9v-2.5h3.7c0.5,0,0.9-0.4,0.9-0.9v-8.6
		C21.9,11.3,21.4,10.8,20.9,10.8z M7.4,6.2c0-0.2,0.1-0.3,0.3-0.3h8.6c0.2,0,0.3,0.1,0.3,0.3v4.6H7.4V6.2z M16.6,23.8
		c0,0.2-0.1,0.3-0.3,0.3H7.7c-0.2,0-0.3-0.1-0.3-0.3v-6.2c0-0.2,0.1-0.3,0.3-0.3h8.6c0.2,0,0.3,0.1,0.3,0.3V23.8z M21.2,20.4
		c0,0.2-0.1,0.3-0.3,0.3h-3.7v-3.1c0-0.5-0.4-0.9-0.9-0.9H7.7c-0.5,0-0.9,0.4-0.9,0.9v3.1H3.1c-0.2,0-0.3-0.1-0.3-0.3v-8.6
		c0-0.2,0.1-0.3,0.3-0.3h17.9c0.2,0,0.3,0.1,0.3,0.3V20.4z"/>
	<path d="M5.2,13H4c-0.2,0-0.3,0.1-0.3,0.3s0.1,0.3,0.3,0.3h1.2c0.2,0,0.3-0.1,0.3-0.3S5.4,13,5.2,13z"/>
</g>
</svg>
