<?xml version="1.0" encoding="utf-8"?>
<!-- Generator: Adobe Illustrator 20.1.0, SVG Export Plug-In . SVG Version: 6.00 Build 0)  -->
<svg version="1.1" id="Layer_1" xmlns="http://www.w3.org/2000/svg" xmlns:xlink="http://www.w3.org/1999/xlink" x="0px" y="0px"
	 viewBox="0 0 100 125" style="enable-background:new 0 0 100 125;" xml:space="preserve">
<g>
	<path d="M87.9,100.8c-0.6,0-1.1-0.2-1.6-0.6L64.5,78.3c-6,5.3-13.6,8.1-21.6,8.1c-8.8,0-17-3.4-23.3-9.6
		c-6.2-6.2-9.6-14.5-9.6-23.3c0-8.8,3.4-17,9.6-23.3c6.2-6.2,14.5-9.6,23.3-9.6s17,3.4,23.3,9.6c12.2,12.2,12.7,32,1.5,44.9
		l21.8,21.8c0.9,0.9,0.9,2.3,0,3.1C89,100.6,88.5,100.8,87.9,100.8z M42.8,25.1c-7.6,0-14.8,3-20.1,8.3c-5.4,5.4-8.3,12.5-8.3,20.1
		c0,7.6,3,14.8,8.3,20.1c5.4,5.4,12.5,8.3,20.1,8.3c7.6,0,14.8-3,20.1-8.3c11.1-11.1,11.1-29.2,0-40.3C57.6,28,50.4,25.1,42.8,25.1z
		"/>
</g>
</svg>
