<?xml version="1.0" encoding="utf-8"?>
<!-- Generator: Adobe Illustrator 20.1.0, SVG Export Plug-In . SVG Version: 6.00 Build 0)  -->
<svg version="1.1"
	 id="Layer_1" xmlns:cc="http://creativecommons.org/ns#" xmlns:dc="http://purl.org/dc/elements/1.1/" xmlns:inkscape="http://www.inkscape.org/namespaces/inkscape" xmlns:rdf="http://www.w3.org/1999/02/22-rdf-syntax-ns#" xmlns:sodipodi="http://sodipodi.sourceforge.net/DTD/sodipodi-0.dtd" xmlns:svg="http://www.w3.org/2000/svg"
	 xmlns="http://www.w3.org/2000/svg" xmlns:xlink="http://www.w3.org/1999/xlink" x="0px" y="0px" viewBox="0 0 388.1 457.3"
	 style="enable-background:new 0 0 388.1 457.3;" xml:space="preserve">
<style type="text/css">
	.st0{stroke:#000000;stroke-miterlimit:10;}
</style>
<g transform="translate(-251.07944,-492.22652)">
	<path class="st0" d="M571.6,585.4c-0.1,0.1-0.3,0.1-0.4,0.1c-0.3,0.1-0.5,0.1-0.7,0.3l-278,149.4c-1.9,1-2.9,3.2-2.4,5.4
		c0.5,2.2,2.5,3.7,4.7,3.7l113.8,0.1l-0.6,98.1c0,1.9,1.1,3.6,2.9,4.4c0.6,0.3,1.3,0.4,2,0.4c1.2,0,2.3-0.5,3.2-1.3l59.1-53.4
		l64.3,62.2c0.9,0.9,2.1,1.4,3.4,1.4c0.6,0,1.1-0.1,1.6-0.3c1.8-0.6,3-2.1,3.2-4l29.9-261.5v-0.1c0-0.2,0-0.3,0-0.5
		c0-0.4-0.1-0.8-0.1-1.2c-0.1-0.2-0.1-0.3-0.2-0.5c-0.1-0.4-0.3-0.7-0.5-1c0-0.1,0-0.2-0.1-0.2c-0.1-0.1-0.2-0.2-0.3-0.3
		c-0.2-0.2-0.5-0.5-0.8-0.7c-0.2-0.1-0.4-0.3-0.6-0.4c-0.2-0.1-0.3-0.2-0.5-0.2h-0.2C573.4,585.3,572.5,585.2,571.6,585.4
		L571.6,585.4z M565.9,606.7l-26.8,234.6l-88.5-85.8L565.9,606.7L565.9,606.7z M542.5,611.8l-131,123.1l-97.6-0.2L542.5,611.8
		L542.5,611.8z M531.3,635.5l-91,117.5c-1.5,1.9-1.4,4.7,0.4,6.4l27.5,26.6l-50.6,45.7l0.5-89.9L531.3,635.5L531.3,635.5z"/>
</g>
</svg>
