<?xml version="1.0" encoding="utf-8"?>
<!-- Generator: Adobe Illustrator 20.1.0, SVG Export Plug-In . SVG Version: 6.00 Build 0)  -->
<svg version="1.1" id="Layer_1" xmlns="http://www.w3.org/2000/svg" xmlns:xlink="http://www.w3.org/1999/xlink" x="0px" y="0px"
	 viewBox="0 0 100 125" style="enable-background:new 0 0 100 125;" xml:space="preserve">
<style type="text/css">
	.st0{stroke:#000000;stroke-miterlimit:10;}
</style>
<path class="st0" d="M95,65.1c-5.5-15.8-23.8-26.9-44.6-26.9c-20.8,0-39.2,11-44.6,26.9l-0.2,0.5l0.2,0.5
	c5.5,15.8,23.8,26.9,44.6,26.9c20.8,0,39.2-11,44.6-26.9l0.2-0.5L95,65.1z M50.3,89.9C31,89.9,14,79.9,8.7,65.6
	C14,51.2,31,41.2,50.3,41.2s36.4,10,41.6,24.4C86.7,79.9,69.7,89.9,50.3,89.9z M50.7,49.1c-8.9,0-16.2,7.3-16.2,16.2
	s7.3,16.2,16.2,16.2s16.2-7.3,16.2-16.2S59.6,49.1,50.7,49.1z M50.7,78.4c-7.3,0-13.2-5.9-13.2-13.2c0-7.3,5.9-13.2,13.2-13.2
	S63.8,58,63.8,65.3S57.9,78.4,50.7,78.4z"/>
</svg>
