<?xml version="1.0" encoding="utf-8"?>
<!-- Generator: Adobe Illustrator 20.1.0, SVG Export Plug-In . SVG Version: 6.00 Build 0)  -->
<svg version="1.1" id="Layer_1" xmlns="http://www.w3.org/2000/svg" xmlns:xlink="http://www.w3.org/1999/xlink" x="0px" y="0px"
	 viewBox="0 0 48 48" style="enable-background:new 0 0 48 48;" xml:space="preserve">
<g id="Layer_1_1_">
	<path d="M38.9,41.1l-5.6-10.2c1.6-0.3,2.8-1.6,2.8-3.3v-15c0-4-3.3-7.3-7.3-7.3h-9.6c-4.1,0-7.4,3.3-7.4,7.3v15
		c0,1.7,1.2,3,2.8,3.3L9.1,41.1C8.7,42,8.9,43,9.8,43.4c0.3,0.1,0.5,0.2,0.8,0.2c0.6,0,1.2-0.3,1.5-0.9l0.5-0.9h23.1l0.5,0.9
		c0.3,0.6,0.9,0.9,1.5,0.9c0.3,0,0.5-0.1,0.8-0.2C39.1,43,39.4,42,38.9,41.1z M31,33.6H17l1.4-2.6h11.2L31,33.6z M30.8,27.9
		c-1.4,0-2.4-1.1-2.4-2.4c0-1.4,1.1-2.4,2.4-2.4c1.4,0,2.4,1.1,2.4,2.4C33.2,26.9,32.1,27.9,30.8,27.9z M14.8,13.6
		c0-2.6,2.1-4.6,4.6-4.6h9.1c2.6,0,4.6,2.1,4.6,4.6v4c0,0.9-0.8,1.6-1.6,1.6H16.4c-0.9,0-1.6-0.7-1.6-1.6L14.8,13.6L14.8,13.6z
		 M17.2,23.1c1.4,0,2.4,1.1,2.4,2.4c0,1.4-1.1,2.4-2.4,2.4s-2.4-1.1-2.4-2.4C14.8,24.1,15.9,23.1,17.2,23.1z M13.8,39.4l1.8-3.3
		h16.7l1.8,3.3H13.8z"/>
</g>
</svg>
