<?xml version="1.0" encoding="utf-8"?>
<!-- Generator: Adobe Illustrator 20.1.0, SVG Export Plug-In . SVG Version: 6.00 Build 0)  -->
<svg version="1.1" id="Layer_1" xmlns="http://www.w3.org/2000/svg" xmlns:xlink="http://www.w3.org/1999/xlink" x="0px" y="0px"
	 viewBox="0 0 100 125" style="enable-background:new 0 0 100 125;" xml:space="preserve">
<path d="M84.9,41.9h-1.6V34c0-2.6-1.9-5.7-4.3-6.9c0,0-8.4-4.2-29-4.2s-29,4.2-29,4.2c-2.3,1.2-4.3,4.3-4.3,6.9v7.9h-1.6
	c-2.6,0-4.8,2.1-4.8,4.8v4.8c0,2.6,2.1,4.8,4.8,4.8h1.6v32.5c0,2.1,1.3,3.8,3.2,4.5v2.7c0,3.5,2.9,6.3,6.3,6.3s6.3-2.9,6.3-6.3v-2.4
	h34.9v2.4c0,3.5,2.9,6.3,6.3,6.3c3.5,0,6.3-2.9,6.3-6.3v-2.7c1.8-0.7,3.2-2.4,3.2-4.5V56.2h1.6c2.6,0,4.8-2.1,4.8-4.8v-4.8
	C89.6,44,87.5,41.9,84.9,41.9z M34.1,30.8c0-0.9,0.7-1.6,1.6-1.6h28.5c0.9,0,1.6,0.7,1.6,1.6V34c0,0.9-0.7,1.6-1.6,1.6H35.7
	c-0.9,0-1.6-0.7-1.6-1.6V30.8z M27,87.1c-2.2,0-4-1.8-4-4s1.8-4,4-4c2.2,0,4,1.8,4,4S29.2,87.1,27,87.1z M73,87.1c-2.2,0-4-1.8-4-4
	s1.8-4,4-4s4,1.8,4,4S75.2,87.1,73,87.1z M76.9,68.8c0,0.9-0.7,1.6-1.6,1.6H24.6c-0.9,0-1.6-0.7-1.6-1.6V43.5c0-0.9,0.7-1.6,1.6-1.6
	h50.7c0.9,0,1.6,0.7,1.6,1.6V68.8z"/>
</svg>
